<svg width="1600" height="1600" viewBox="0 0 1600 1600" fill="none" xmlns="http://www.w3.org/2000/svg">
<path d="M1400 850H1500V1450H1400C1372.37 1450 1350 1427.63 1350 1400V900C1350 872.375 1372.37 850 1400 850Z" fill="#58EA03"/>
<path d="M131.688 873.933C157.876 858.245 187.688 849.996 217.876 849.996C245.564 849.996 273.251 856.996 297.876 870.308L537.556 999.183C561.931 998.308 594.868 996.37 631.431 992.37C653.431 967.558 685.119 951.433 721.119 950.308C727.244 950.245 766.993 950.183 813.493 950.12C863.931 927.995 899.993 896.12 899.993 849.995V754.245C800.743 841.245 580.74 849.995 499.993 849.995C419.247 849.995 199.247 841.245 99.9933 754.245V849.995C99.9933 864.432 104.368 877.12 110.743 888.869C117.306 883.494 124.181 878.369 131.681 873.932L131.688 873.933Z" fill="#58EA03"/>
<path d="M157.307 916.88C193.432 895.317 237.181 894.38 274.119 914.318L601.559 1090.32C609.184 1152.01 661.308 1200.01 724.996 1200.01H925.983C939.795 1200.01 950.983 1188.82 950.983 1175.01C950.983 1161.19 939.795 1150.01 925.983 1150.01L724.996 1150.07C683.621 1150.07 649.996 1116.44 649.996 1075.07C649.996 1034.51 682.433 1001.57 722.684 1000.32C737.621 1000.13 979.244 1000.07 979.244 1000.07L1064.62 914.757C1073.99 905.382 1086.74 900.131 1099.99 900.131H1299.99V1400.13H1211.74L1050 1450.01C982.808 1471.63 910.929 1500.01 831.303 1500.01C759.303 1500.01 688.369 1476.13 627.116 1429.19L150.983 1114.07C119.045 1092.2 99.9827 1056.07 99.9827 1017.51C99.9827 975.886 121.42 938.261 157.295 916.886L157.307 916.88Z" fill="#58EA03"/>
<path d="M1400 150H1350C1350 122.375 1327.63 100 1300 100C1272.37 100 1250 122.375 1250 150H1000C1000 122.375 977.625 100 950 100C922.375 100 900 122.375 900 150H850C794.749 150 750 194.749 750 250V350H1500V250C1500 194.749 1455.25 150 1400 150Z" fill="#58EA03"/>
<path d="M1350 400H1500V500H1350V400Z" fill="#58EA03"/>
<path d="M1150 400H1300V500H1150V400Z" fill="#58EA03"/>
<path d="M950 400H1100V500H950V400Z" fill="#58EA03"/>
<path d="M750 400H900V500H750V400Z" fill="#58EA03"/>
<path d="M1350 550H1500V650H1350V550Z" fill="#58EA03"/>
<path d="M1150 550H1300V650H1150V550Z" fill="#58EA03"/>
<path d="M950 550H1100V650H950V550Z" fill="#58EA03"/>
<path d="M1400 800H1350V700H1500C1500 755.251 1455.25 800 1400 800Z" fill="#58EA03"/>
<path d="M1150 700H1300V800H1150V700Z" fill="#58EA03"/>
<path d="M950 700H1100V800H950V700Z" fill="#58EA03"/>
<path d="M500 350C472.437 350 450 327.563 450 300C450 272.437 472.437 250 500 250C527.563 250 550 272.437 550 300C550 327.625 572.375 350 600 350C627.625 350 650 327.625 650 300C650 234.875 608.063 179.937 550 159.187V149.999C550 122.374 527.625 99.9993 500 99.9993C472.375 99.9993 450 122.374 450 149.999V159.187C391.937 179.936 350 234.875 350 300C350 382.688 417.312 450 500 450C527.563 450 550 472.437 550 500C550 527.563 527.563 550 500 550C472.437 550 450 527.563 450 500C450 472.375 427.625 450 400 450C372.375 450 350 472.375 350 500C350 565.125 391.937 620.063 450 640.813V650.001C450 677.626 472.375 700.001 500 700.001C527.625 700.001 550 677.626 550 650.001V640.813C608.063 620.064 650 565.125 650 500C650 417.312 582.688 350 500 350Z" fill="#58EA03"/>
<path d="M698.627 519.933C692.002 584.745 653.939 642.496 597.064 674.187C586.252 717.687 546.813 749.999 500.001 749.999C453.189 749.999 413.751 717.687 402.939 674.187C346.064 642.499 308.001 584.749 301.376 519.933C181.188 545.808 100.003 594.308 100.003 649.996C100.003 732.808 279.056 799.996 500.003 799.996C720.949 799.996 900.003 732.808 900.003 649.996C900.003 594.308 818.815 545.808 698.629 519.933H698.627Z" fill="#58EA03"/>
</svg>
