<svg width="1600" height="1600" viewBox="0 0 1600 1600" fill="none" xmlns="http://www.w3.org/2000/svg">
<path fill-rule="evenodd" clip-rule="evenodd" d="M1542 811.68V833.18C1542 878.18 1509.13 915.743 1464.5 921.617L1350.75 936.617C1336.19 1001.87 1310.44 1062.93 1275.69 1117.6L1345.56 1208.73C1372.94 1244.48 1369.69 1294.23 1337.88 1326.1L1307.44 1356.54C1275.63 1388.35 1225.81 1391.67 1190.06 1364.23L1098.94 1294.35C1044.19 1329.1 983.188 1354.85 917.884 1369.42L902.884 1483.17C897.01 1527.79 859.447 1560.67 814.447 1560.67H771.384C726.384 1560.67 688.822 1527.79 682.947 1483.17L667.947 1369.42C602.697 1354.85 541.635 1329.1 486.961 1294.35L395.835 1364.23C360.086 1391.6 310.335 1388.35 278.461 1356.54L248.023 1326.1C216.211 1294.29 212.898 1244.48 240.336 1208.73L310.21 1117.6C275.461 1062.85 249.71 1001.85 235.148 936.551L121.398 921.551C76.773 915.676 43.8984 878.113 43.8984 833.113V811.613H538.845C538.845 951.987 652.657 1065.8 793.032 1065.8C933.418 1065.8 1047.22 951.988 1047.22 811.613L1542 811.68ZM119.067 705.055C117.317 717.867 105.504 726.743 92.7546 724.992C79.9421 723.242 71.0666 711.429 72.8173 698.68C99.2546 509.56 189.005 344.813 317.311 227.307C574.564 -8.26675 952.057 -24.9468 1227.12 190.307C1343.81 281.619 1434.87 409.747 1483.94 561.88L1527.19 551.005C1544.31 546.692 1560.63 562.505 1555.13 580.817L1521.19 701.192C1516.13 719.129 1493.31 724.004 1481.25 710.442L1399.44 618.442C1387.88 605.442 1393.94 584.316 1411.81 580.067L1438.63 573.317C1345.94 289.744 1092.69 86.0103 794.066 86.0103C625.119 86.0103 468.946 151.698 348.812 261.69C228.312 372.002 143.932 526.944 119.066 705.064L119.067 705.055ZM785.253 790.243H973.88C973.88 686.055 889.443 601.616 785.253 601.616C681.064 601.616 596.627 686.053 596.627 790.243H785.253ZM785.253 335.549C720.753 335.549 668.441 387.861 668.441 452.361C668.441 516.861 720.753 569.173 785.253 569.173C849.753 569.173 902.065 516.861 902.065 452.361C902.065 387.799 849.753 335.549 785.253 335.549ZM1088.56 714.243H1277.19C1277.19 610.055 1192.75 525.616 1088.56 525.616C1024.19 525.616 967.309 557.928 933.253 607.179C967.379 634.804 993.628 671.804 1008.13 714.241L1088.56 714.243ZM1088.56 259.549C1024.06 259.549 971.748 311.861 971.748 376.361C971.748 440.861 1024.06 493.173 1088.56 493.173C1153.06 493.173 1205.37 440.861 1205.37 376.361C1205.43 311.861 1153.12 259.549 1088.56 259.549ZM496.987 714.243H562.361C578.173 667.868 608.049 628.055 646.861 599.743C612.424 554.68 558.049 525.617 496.981 525.617C392.793 525.617 308.355 610.055 308.355 714.244L496.987 714.243ZM496.987 259.549C432.487 259.549 380.175 311.861 380.175 376.361C380.175 440.861 432.487 493.173 496.987 493.173C561.487 493.173 613.799 440.861 613.799 376.361C613.799 311.861 561.487 259.549 496.987 259.549Z" fill="#58EA03"/>
</svg>
