<svg width="179" height="35" viewBox="0 0 179 35" fill="none" xmlns="http://www.w3.org/2000/svg">
<g clip-path="url(#clip0_143_1030)">
<path d="M26.5263 9.11082C28.9276 8.37844 31.2027 8.50539 33.404 9.87836C35.4345 11.1459 36.6361 13.1711 38.1774 14.8781C39.1286 15.9327 40.0836 17.003 40.5437 18.458C41.4172 21.2273 41.0562 23.7565 39.2489 25.9732C37.9017 27.6254 36.1702 28.9085 34.5338 30.2678C33.3574 31.2443 32.3324 32.4025 31.0357 33.2325C28.7859 34.6738 26.3089 35.2519 23.6902 34.8965C19.54 34.3321 15.6265 31.1486 14.6773 26.8051C14.6035 26.4634 14.4579 26.1372 14.3453 25.8032C14.3181 24.4186 14.3317 23.0378 14.5647 21.6668C14.7976 21.2254 15.2227 21.2859 15.5916 21.325C16.5913 21.4324 17.5425 21.1082 18.4121 20.7801C20.1941 20.1063 21.8849 19.1903 23.6223 18.3955C24.8355 17.8388 26.1556 17.3389 27.3979 18.0185C29.5624 19.206 30.3602 21.5886 28.3763 23.6706C25.878 26.2915 22.8575 27.4106 19.2352 26.4438C18.8198 26.3325 18.2083 26.1099 18.1675 26.9419C18.1035 28.2367 18.0569 29.5335 17.9831 30.8284C17.9501 31.4084 18.2937 31.6799 18.7596 31.7814C21.1065 32.2912 23.3874 32.049 25.6431 31.2229C27.5979 30.5061 29.3022 29.3929 30.8863 28.0785C32.7789 26.5083 34.3629 24.6432 34.8308 22.1706C35.3665 19.3368 34.4988 16.8194 32.5382 14.6867C30.3078 12.2591 27.6852 11.3216 24.4473 12.2903C23.1195 12.6868 21.9024 13.3469 20.5804 13.7414C21.2832 13.093 21.9781 12.4368 22.6886 11.7962C23.8591 10.7416 25.0297 9.68501 26.5321 9.11082H26.5263Z" fill="#C1FD75"/>
<path d="M14.5628 21.6687C14.3298 23.0378 14.3163 24.4205 14.3434 25.8052C10.991 26.8794 7.90448 26.0103 5.6197 23.3346C4.29386 21.782 2.95443 20.2391 1.67519 18.6493C-0.696955 15.7003 -0.563012 11.1029 2.1566 8.49757C4.58504 6.17153 7.12218 3.92556 9.8088 1.91396C13.895 -1.14447 20.2621 -0.496065 23.7641 3.56035C25.1947 5.21846 26.1148 7.00352 26.5264 9.11082C25.0239 9.68305 23.8533 10.7416 22.6828 11.7962C21.9723 12.4368 21.2774 13.093 20.5766 13.7414C19.2818 14.6105 17.8978 15.3019 16.3992 15.7315C15.2713 16.0538 14.2289 15.8975 13.3748 14.9874C12.1829 13.7199 12.2314 12.1204 13.6562 10.5814C15.6091 8.47218 17.956 7.16562 20.9338 7.4156C21.6462 7.47419 21.9568 7.26717 21.8966 6.5094C21.8384 5.79851 21.8636 5.07979 21.852 4.36499C21.817 2.16785 21.6346 2.01161 19.3983 2.24597C19.3342 2.25183 19.2702 2.2655 19.2061 2.27331C14.5764 2.96273 11.0298 5.45477 8.55478 9.30612C5.42364 14.1808 8.16072 20.2547 13.7882 21.3133C14.093 21.3699 14.3085 21.5398 14.5628 21.6648V21.6687Z" fill="#044BAC"/>
<path d="M14.5628 21.6687C14.3085 21.5418 14.093 21.3738 13.7882 21.3172C8.1607 20.2567 5.42362 14.1848 8.55477 9.31002C11.0279 5.45868 14.5764 2.96663 19.2061 2.27721C19.2702 2.26745 19.3342 2.25573 19.3983 2.24987C21.6345 2.01356 21.817 2.17175 21.852 4.36889C21.8636 5.0837 21.8384 5.80241 21.8966 6.5133C21.9568 7.26912 21.6442 7.47809 20.9338 7.4195C17.956 7.17147 15.6091 8.47609 13.6562 10.5853C12.2314 12.1243 12.1848 13.7238 13.3748 14.9913C14.2289 15.9015 15.2713 16.0577 16.3991 15.7354C17.8977 15.3077 19.2818 14.6164 20.5766 13.7453C21.8985 13.3528 23.1157 12.6907 24.4435 12.2942C27.6814 11.3275 30.3039 12.263 32.5344 14.6906C34.495 16.8233 35.3627 19.3407 34.8269 22.1745C34.3591 24.6451 32.7751 26.5122 30.8824 28.0824C29.2984 29.3968 27.594 30.51 25.6392 31.2268C23.3855 32.0548 21.1027 32.2951 18.7558 31.7853C18.2899 31.6838 17.9463 31.4123 17.9793 30.8323C18.055 29.5374 18.1016 28.2406 18.1637 26.9458C18.2045 26.1138 18.8159 26.3384 19.2313 26.4477C22.8536 27.4145 25.8741 26.2954 28.3724 23.6745C30.3544 21.5925 29.5585 19.2099 27.3941 18.0224C26.1536 17.3428 24.8336 17.8427 23.6184 18.3994C21.8811 19.1962 20.1903 20.1102 18.4083 20.784C17.5386 21.1121 16.5874 21.4363 15.5877 21.3289C15.2189 21.2898 14.7938 21.2293 14.5608 21.6707L14.5628 21.6687Z" fill="#FEFEFE"/>
</g>
<path d="M59.8687 22.816C58.3967 22.816 57.074 22.56 55.9007 22.048C54.7487 21.5147 53.842 20.7893 53.1807 19.872C52.5193 18.9333 52.178 17.856 52.1567 16.64H55.2607C55.3673 17.6853 55.794 18.5707 56.5407 19.296C57.3087 20 58.418 20.352 59.8687 20.352C61.2553 20.352 62.3433 20.0107 63.1327 19.328C63.9433 18.624 64.3487 17.728 64.3487 16.64C64.3487 15.7867 64.114 15.0933 63.6447 14.56C63.1753 14.0267 62.5887 13.6213 61.8847 13.344C61.1807 13.0667 60.2313 12.768 59.0367 12.448C57.5647 12.064 56.3807 11.68 55.4847 11.296C54.61 10.912 53.8527 10.3147 53.2127 9.504C52.594 8.672 52.2847 7.56267 52.2847 6.176C52.2847 4.96 52.594 3.88267 53.2127 2.944C53.8313 2.00533 54.6953 1.28 55.8047 0.768C56.9353 0.256 58.226 0 59.6767 0C61.7673 0 63.474 0.522667 64.7967 1.568C66.1407 2.61333 66.898 4 67.0687 5.728H63.8687C63.762 4.87467 63.314 4.128 62.5247 3.488C61.7353 2.82667 60.69 2.496 59.3887 2.496C58.1727 2.496 57.1807 2.816 56.4127 3.456C55.6447 4.07467 55.2607 4.94933 55.2607 6.08C55.2607 6.89067 55.4847 7.552 55.9327 8.064C56.402 8.576 56.9673 8.97067 57.6287 9.248C58.3113 9.504 59.2607 9.80267 60.4767 10.144C61.9487 10.5493 63.1327 10.9547 64.0287 11.36C64.9247 11.744 65.6927 12.352 66.3327 13.184C66.9727 13.9947 67.2927 15.104 67.2927 16.512C67.2927 17.6 67.0047 18.624 66.4287 19.584C65.8527 20.544 64.9993 21.3227 63.8687 21.92C62.738 22.5173 61.4047 22.816 59.8687 22.816Z" fill="#FAFAFA"/>
<path d="M87.1939 0.288L79.9299 14.176V22.592H77.0179V14.176L69.7219 0.288H72.9539L78.4579 11.584L83.9619 0.288H87.1939Z" fill="#FAFAFA"/>
<path d="M107.801 22.592H104.889L93.1774 4.832V22.592H90.2654V0.256001H93.1774L104.889 17.984V0.256001H107.801V22.592Z" fill="#FAFAFA"/>
<path d="M122.877 22.816C120.808 22.816 118.92 22.336 117.213 21.376C115.507 20.3947 114.152 19.04 113.149 17.312C112.168 15.5627 111.677 13.6 111.677 11.424C111.677 9.248 112.168 7.296 113.149 5.568C114.152 3.81867 115.507 2.464 117.213 1.504C118.92 0.522666 120.808 0.0319996 122.877 0.0319996C124.968 0.0319996 126.867 0.522666 128.573 1.504C130.28 2.464 131.624 3.808 132.605 5.536C133.587 7.264 134.077 9.22667 134.077 11.424C134.077 13.6213 133.587 15.584 132.605 17.312C131.624 19.04 130.28 20.3947 128.573 21.376C126.867 22.336 124.968 22.816 122.877 22.816ZM122.877 20.288C124.435 20.288 125.832 19.9253 127.069 19.2C128.328 18.4747 129.309 17.44 130.013 16.096C130.739 14.752 131.101 13.1947 131.101 11.424C131.101 9.632 130.739 8.07467 130.013 6.752C129.309 5.408 128.339 4.37333 127.101 3.648C125.864 2.92267 124.456 2.56 122.877 2.56C121.299 2.56 119.891 2.92267 118.653 3.648C117.416 4.37333 116.435 5.408 115.709 6.752C115.005 8.07467 114.653 9.632 114.653 11.424C114.653 13.1947 115.005 14.752 115.709 16.096C116.435 17.44 117.416 18.4747 118.653 19.2C119.912 19.9253 121.32 20.288 122.877 20.288Z" fill="#FAFAFA"/>
<path d="M156.354 0.288L147.938 22.592H144.578L136.162 0.288H139.266L146.274 19.52L153.282 0.288H156.354Z" fill="#FAFAFA"/>
<path d="M172.731 17.632H163.003L161.211 22.592H158.139L166.203 0.416H169.563L177.595 22.592H174.523L172.731 17.632ZM171.899 15.264L167.867 4L163.835 15.264H171.899Z" fill="#FAFAFA"/>
<path d="M55.654 26.5513V32.592H54.8653V29.8533H51.7887V32.592H51V26.5513H51.7887V29.2033H54.8653V26.5513H55.654Z" fill="#FAFAFA"/>
<path d="M57.772 26.5513V30.3733C57.772 30.9107 57.902 31.3093 58.162 31.5693C58.4278 31.8293 58.7947 31.9593 59.2627 31.9593C59.7249 31.9593 60.086 31.8293 60.346 31.5693C60.6118 31.3093 60.7447 30.9107 60.7447 30.3733V26.5513H61.5333V30.3647C61.5333 30.8673 61.4322 31.292 61.23 31.6387C61.0278 31.9796 60.7533 32.2338 60.4067 32.4013C60.0658 32.5689 59.6815 32.6527 59.254 32.6527C58.8264 32.6527 58.4393 32.5689 58.0927 32.4013C57.7518 32.2338 57.4802 31.9796 57.278 31.6387C57.0815 31.292 56.9833 30.8673 56.9833 30.3647V26.5513H57.772Z" fill="#FAFAFA"/>
<path d="M68.9763 26.5947V32.592H68.1876V28.12L66.1943 32.592H65.6396L63.6376 28.1113V32.592H62.849V26.5947H63.6983L65.917 31.552L68.1356 26.5947H68.9763Z" fill="#FAFAFA"/>
<path d="M73.8845 31.2487H71.2498L70.7645 32.592H69.9325L72.1165 26.586H73.0265L75.2018 32.592H74.3698L73.8845 31.2487ZM73.6591 30.6073L72.5671 27.5567L71.4751 30.6073H73.6591Z" fill="#FAFAFA"/>
<path d="M80.903 32.592H80.1143L76.9423 27.782V32.592H76.1536V26.5427H76.9423L80.1143 31.344V26.5427H80.903V32.592Z" fill="#FAFAFA"/>
<path d="M84.2633 29.5673C84.2633 28.978 84.3962 28.4493 84.6619 27.9813C84.9277 27.5076 85.2888 27.1378 85.7453 26.872C86.2075 26.6062 86.7188 26.4733 87.2793 26.4733C87.9379 26.4733 88.5128 26.6322 89.0039 26.95C89.4951 27.2678 89.8533 27.7184 90.0786 28.302H89.1339C88.9664 27.938 88.7237 27.6578 88.4059 27.4613C88.0939 27.2649 87.7184 27.1667 87.2793 27.1667C86.8575 27.1667 86.4791 27.2649 86.1439 27.4613C85.8088 27.6578 85.5459 27.938 85.3553 28.302C85.1646 28.6602 85.0693 29.082 85.0693 29.5673C85.0693 30.0469 85.1646 30.4687 85.3553 30.8327C85.5459 31.1909 85.8088 31.4682 86.1439 31.6647C86.4791 31.8611 86.8575 31.9593 87.2793 31.9593C87.7184 31.9593 88.0939 31.864 88.4059 31.6733C88.7237 31.4769 88.9664 31.1967 89.1339 30.8327H90.0786C89.8533 31.4104 89.4951 31.8582 89.0039 32.176C88.5128 32.488 87.9379 32.644 87.2793 32.644C86.7188 32.644 86.2075 32.514 85.7453 32.254C85.2888 31.9882 84.9277 31.6213 84.6619 31.1533C84.3962 30.6853 84.2633 30.1567 84.2633 29.5673Z" fill="#FAFAFA"/>
<path d="M94.8233 31.2487H92.1886L91.7033 32.592H90.8713L93.0553 26.586H93.9653L96.1406 32.592H95.3086L94.8233 31.2487ZM94.5979 30.6073L93.5059 27.5567L92.4139 30.6073H94.5979Z" fill="#FAFAFA"/>
<path d="M101.131 28.3193C101.131 28.822 100.958 29.2409 100.611 29.576C100.27 29.9053 99.7473 30.07 99.0424 30.07H97.8811V32.592H97.0924V26.5513H99.0424C99.7242 26.5513 100.241 26.716 100.594 27.0453C100.952 27.3747 101.131 27.7993 101.131 28.3193ZM99.0424 29.42C99.4816 29.42 99.8051 29.3247 100.013 29.134C100.221 28.9433 100.325 28.6718 100.325 28.3193C100.325 27.574 99.8976 27.2013 99.0424 27.2013H97.8811V29.42H99.0424Z" fill="#FAFAFA"/>
<path d="M102.9 26.5513V32.592H102.111V26.5513H102.9Z" fill="#FAFAFA"/>
<path d="M107.962 26.5513V27.1927H106.315V32.592H105.527V27.1927H103.871V26.5513H107.962Z" fill="#FAFAFA"/>
<path d="M112.504 31.2487H109.869L109.384 32.592H108.552L110.736 26.586H111.646L113.821 32.592H112.989L112.504 31.2487ZM112.278 30.6073L111.186 27.5567L110.094 30.6073H112.278Z" fill="#FAFAFA"/>
<path d="M115.561 31.9507H117.676V32.592H114.773V26.5513H115.561V31.9507Z" fill="#FAFAFA"/>
<path d="M126.952 26.5947V32.592H126.163V28.12L124.17 32.592H123.615L121.613 28.1113V32.592H120.824V26.5947H121.674L123.892 31.552L126.111 26.5947H126.952Z" fill="#FAFAFA"/>
<path d="M131.86 31.2487H129.225L128.74 32.592H127.908L130.092 26.586H131.002L133.177 32.592H132.345L131.86 31.2487ZM131.634 30.6073L130.542 27.5567L129.45 30.6073H131.634Z" fill="#FAFAFA"/>
<path d="M138.878 32.592H138.09L134.918 27.782V32.592H134.129V26.5427H134.918L138.09 31.344V26.5427H138.878V32.592Z" fill="#FAFAFA"/>
<path d="M143.793 31.2487H141.159L140.673 32.592H139.841L142.025 26.586H142.935L145.111 32.592H144.279L143.793 31.2487ZM143.568 30.6073L142.476 27.5567L141.384 30.6073H143.568Z" fill="#FAFAFA"/>
<path d="M150.639 28.302C150.471 27.9496 150.228 27.678 149.91 27.4873C149.593 27.2909 149.223 27.1927 148.801 27.1927C148.379 27.1927 147.998 27.2909 147.657 27.4873C147.322 27.678 147.056 27.9553 146.86 28.3193C146.669 28.6776 146.574 29.0936 146.574 29.5673C146.574 30.0411 146.669 30.4571 146.86 30.8153C147.056 31.1736 147.322 31.4509 147.657 31.6473C147.998 31.838 148.379 31.9333 148.801 31.9333C149.391 31.9333 149.876 31.7571 150.257 31.4047C150.638 31.0522 150.861 30.5756 150.924 29.9747H148.515V29.3333H151.765V29.94C151.719 30.4369 151.563 30.8933 151.297 31.3093C151.031 31.7196 150.682 32.046 150.248 32.2887C149.815 32.5256 149.333 32.644 148.801 32.644C148.241 32.644 147.729 32.514 147.267 32.254C146.805 31.9882 146.438 31.6213 146.166 31.1533C145.901 30.6853 145.768 30.1567 145.768 29.5673C145.768 28.978 145.901 28.4493 146.166 27.9813C146.438 27.5076 146.805 27.1407 147.267 26.8807C147.729 26.6149 148.241 26.482 148.801 26.482C149.443 26.482 150.009 26.6409 150.5 26.9587C150.997 27.2764 151.358 27.7242 151.583 28.302H150.639Z" fill="#FAFAFA"/>
<path d="M153.597 27.1927V29.212H155.798V29.862H153.597V31.942H156.058V32.592H152.808V26.5427H156.058V27.1927H153.597Z" fill="#FAFAFA"/>
<path d="M163.379 26.5947V32.592H162.59V28.12L160.597 32.592H160.042L158.04 28.1113V32.592H157.251V26.5947H158.101L160.319 31.552L162.538 26.5947H163.379Z" fill="#FAFAFA"/>
<path d="M165.505 27.1927V29.212H167.706V29.862H165.505V31.942H167.966V32.592H164.716V26.5427H167.966V27.1927H165.505Z" fill="#FAFAFA"/>
<path d="M173.909 32.592H173.12L169.948 27.782V32.592H169.16V26.5427H169.948L173.12 31.344V26.5427H173.909V32.592Z" fill="#FAFAFA"/>
<path d="M178.971 26.5513V27.1927H177.325V32.592H176.536V27.1927H174.881V26.5513H178.971Z" fill="#FAFAFA"/>
<defs>
<clipPath id="clip0_143_1030">
<rect width="41" height="35" fill="white"/>
</clipPath>
</defs>
</svg>
