<?xml version="1.0" encoding="UTF-8"?>
<svg width="1200pt" height="1200pt" version="1.1" viewBox="0 0 1200 1200" xmlns="http://www.w3.org/2000/svg">
 <path d="m1050 637.5h75v450h-75c-20.719 0-37.5-16.781-37.5-37.5v-375c0-20.719 16.781-37.5 37.5-37.5z"/>
 <path d="m98.766 655.45c19.641-11.766 42-17.953 64.641-17.953 20.766 0 41.531 5.25 60 15.234l179.76 96.656c18.281-0.65625 42.984-2.1094 70.406-5.1094 16.5-18.609 40.266-30.703 67.266-31.547 4.5938-0.046875 34.406-0.09375 69.281-0.14062 37.828-16.594 64.875-40.5 64.875-75.094v-71.812c-74.438 65.25-239.44 71.812-300 71.812s-225.56-6.5625-300-71.812v71.812c0 10.828 3.2812 20.344 8.0625 29.156 4.9219-4.0312 10.078-7.875 15.703-11.203z"/>
 <path d="m117.98 687.66c27.094-16.172 59.906-16.875 87.609-1.9219l245.58 132c5.7188 46.266 44.812 82.266 92.578 82.266h150.74c10.359 0 18.75-8.3906 18.75-18.75s-8.3906-18.75-18.75-18.75l-150.74 0.046875c-31.031 0-56.25-25.219-56.25-56.25 0-30.422 24.328-55.125 54.516-56.062 11.203-0.14062 192.42-0.1875 192.42-0.1875l64.031-63.984c7.0312-7.0312 16.594-10.969 26.531-10.969h150v375h-66.188l-121.31 37.406c-50.391 16.219-104.3 37.5-164.02 37.5-54 0-107.2-17.906-153.14-53.109l-357.1-236.34c-23.953-16.406-38.25-43.5-38.25-72.422 0-31.219 16.078-59.438 42.984-75.469z"/>
 <path d="m1050 112.5h-37.5c0-20.719-16.781-37.5-37.5-37.5s-37.5 16.781-37.5 37.5h-187.5c0-20.719-16.781-37.5-37.5-37.5s-37.5 16.781-37.5 37.5h-37.5c-41.438 0-75 33.562-75 75v75h562.5v-75c0-41.438-33.562-75-75-75z"/>
 <path d="m1012.5 300h112.5v75h-112.5z"/>
 <path d="m862.5 300h112.5v75h-112.5z"/>
 <path d="m712.5 300h112.5v75h-112.5z"/>
 <path d="m562.5 300h112.5v75h-112.5z"/>
 <path d="m1012.5 412.5h112.5v75h-112.5z"/>
 <path d="m862.5 412.5h112.5v75h-112.5z"/>
 <path d="m712.5 412.5h112.5v75h-112.5z"/>
 <path d="m1050 600h-37.5v-75h112.5c0 41.438-33.562 75-75 75z"/>
 <path d="m862.5 525h112.5v75h-112.5z"/>
 <path d="m712.5 525h112.5v75h-112.5z"/>
 <path d="m375 262.5c-20.672 0-37.5-16.828-37.5-37.5s16.828-37.5 37.5-37.5 37.5 16.828 37.5 37.5c0 20.719 16.781 37.5 37.5 37.5s37.5-16.781 37.5-37.5c0-48.844-31.453-90.047-75-105.61v-6.8906c0-20.719-16.781-37.5-37.5-37.5s-37.5 16.781-37.5 37.5v6.8906c-43.547 15.562-75 56.766-75 105.61 0 62.016 50.484 112.5 112.5 112.5 20.672 0 37.5 16.828 37.5 37.5s-16.828 37.5-37.5 37.5-37.5-16.828-37.5-37.5c0-20.719-16.781-37.5-37.5-37.5s-37.5 16.781-37.5 37.5c0 48.844 31.453 90.047 75 105.61v6.8906c0 20.719 16.781 37.5 37.5 37.5s37.5-16.781 37.5-37.5v-6.8906c43.547-15.562 75-56.766 75-105.61 0-62.016-50.484-112.5-112.5-112.5z"/>
 <path d="m523.97 389.95c-4.9688 48.609-33.516 91.922-76.172 115.69-8.1094 32.625-37.688 56.859-72.797 56.859s-64.688-24.234-72.797-56.859c-42.656-23.766-71.203-67.078-76.172-115.69-90.141 19.406-151.03 55.781-151.03 97.547 0 62.109 134.29 112.5 300 112.5s300-50.391 300-112.5c0-41.766-60.891-78.141-151.03-97.547z"/>
</svg>
