<?xml version="1.0" encoding="UTF-8"?>
<svg width="1200pt" height="1200pt" version="1.1" viewBox="0 0 1200 1200" xmlns="http://www.w3.org/2000/svg">
 <path d="m1156.5 608.76v16.125c0 33.75-24.656 61.922-58.125 66.328l-85.312 11.25c-10.922 48.938-30.234 94.734-56.297 135.74l52.406 68.344c20.531 26.812 18.094 64.125-5.7656 88.031l-22.828 22.828c-23.859 23.859-61.219 26.344-88.031 5.7656l-68.344-52.406c-41.062 26.062-86.812 45.375-135.79 56.297l-11.25 85.312c-4.4062 33.469-32.578 58.125-66.328 58.125h-32.297c-33.75 0-61.922-24.656-66.328-58.125l-11.25-85.312c-48.938-10.922-94.734-30.234-135.74-56.297l-68.344 52.406c-26.812 20.531-64.125 18.094-88.031-5.7656l-22.828-22.828c-23.859-23.859-26.344-61.219-5.7656-88.031l52.406-68.344c-26.062-41.062-45.375-86.812-56.297-135.79l-85.312-11.25c-33.469-4.4062-58.125-32.578-58.125-66.328v-16.125h371.21c0 105.28 85.359 190.64 190.64 190.64 105.29 0 190.64-85.359 190.64-190.64zm-1067.2-79.969c-1.3125 9.6094-10.172 16.266-19.734 14.953-9.6094-1.3125-16.266-10.172-14.953-19.734 19.828-141.84 87.141-265.4 183.37-353.53 192.94-176.68 476.06-189.19 682.36-27.75 87.516 68.484 155.81 164.58 192.61 278.68l32.438-8.1562c12.844-3.2344 25.078 8.625 20.953 22.359l-25.453 90.281c-3.7969 13.453-20.906 17.109-29.953 6.9375l-61.359-69c-8.6719-9.75-4.125-25.594 9.2812-28.781l20.109-5.0625c-69.516-212.68-259.45-365.48-483.42-365.48-126.71 0-243.84 49.266-333.94 131.76-90.375 82.734-153.66 198.94-172.31 332.53zm499.64 63.891h141.47c0-78.141-63.328-141.47-141.47-141.47s-141.47 63.328-141.47 141.47zm0-341.02c-48.375 0-87.609 39.234-87.609 87.609s39.234 87.609 87.609 87.609 87.609-39.234 87.609-87.609c0-48.422-39.234-87.609-87.609-87.609zm227.48 284.02h141.47c0-78.141-63.328-141.47-141.47-141.47-48.281 0-90.938 24.234-116.48 61.172 25.594 20.719 45.281 48.469 56.156 80.297zm0-341.02c-48.375 0-87.609 39.234-87.609 87.609s39.234 87.609 87.609 87.609 87.609-39.234 87.609-87.609c0.046875-48.375-39.188-87.609-87.609-87.609zm-443.68 341.02h49.031c11.859-34.781 34.266-64.641 63.375-85.875-25.828-33.797-66.609-55.594-112.41-55.594-78.141 0-141.47 63.328-141.47 141.47zm0-341.02c-48.375 0-87.609 39.234-87.609 87.609s39.234 87.609 87.609 87.609 87.609-39.234 87.609-87.609-39.234-87.609-87.609-87.609z" fill-rule="evenodd"/>
</svg>
